<svg width="49" height="49" viewBox="0 0 49 49" fill="none" xmlns="http://www.w3.org/2000/svg">
<path d="M26.3438 2.42179C25.7579 2.14384 25.1215 2 24.4775 2C23.8336 2 23.1971 2.14384 22.6112 2.42179L3.34135 11.5425C2.94235 11.7255 2.60311 12.0252 2.36496 12.4051C2.1268 12.7851 2 13.2288 2 13.6824C2 14.1359 2.1268 14.5797 2.36496 14.9596C2.60311 15.3396 2.94235 15.6393 3.34135 15.8222L22.6337 24.9664C23.2196 25.2443 23.856 25.3882 24.5 25.3882C25.144 25.3882 25.7804 25.2443 26.3663 24.9664L45.6587 15.8456C46.0577 15.6626 46.3969 15.3629 46.635 14.983C46.8732 14.6031 47 14.1593 47 13.7058C47 13.2522 46.8732 12.8085 46.635 12.4285C46.3969 12.0486 46.0577 11.7489 45.6587 11.5659L26.3438 2.42179Z" stroke="#F59E0B" stroke-width="4" stroke-linecap="round" stroke-linejoin="round"/>
<path d="M2.00001 25.3882C1.99894 25.8017 2.12132 26.2068 2.35262 26.5556C2.58392 26.9043 2.91445 27.1819 3.305 27.3556L22.655 35.8091C23.2382 36.0628 23.871 36.1941 24.5112 36.1941C25.1514 36.1941 25.7843 36.0628 26.3675 35.8091L45.6724 27.3772C46.0707 27.2052 46.4083 26.9256 46.644 26.5724C46.8797 26.2192 47.0034 25.8077 46.9999 25.3882" stroke="#F59E0B" stroke-width="4" stroke-linecap="round" stroke-linejoin="round"/>
<path d="M2.00001 36.1941C1.99894 36.6076 2.12132 37.0128 2.35262 37.3615C2.58392 37.7102 2.91445 37.9878 3.305 38.1615L22.655 46.615C23.2382 46.8687 23.871 47 24.5112 47C25.1514 47 25.7843 46.8687 26.3675 46.615L45.6724 38.1831C46.0707 38.0111 46.4083 37.7315 46.644 37.3783C46.8797 37.0251 47.0034 36.6137 46.9999 36.1941" stroke="#F59E0B" stroke-width="4" stroke-linecap="round" stroke-linejoin="round"/>
</svg>
